<!-- icon666.com - MILLIONS OF FREE VECTOR ICONS --><svg fill="none" viewBox="0 0 20 20" xmlns="http://www.w3.org/2000/svg"><path clip-rule="evenodd" d="m7.29279 14.707c-.18747-.1875-.29279-.4418-.29279-.707s.10532-.5195.29279-.707l3.29301-3.293-3.29301-3.29299c-.18216-.1886-.28296-.4412-.28068-.7034s.10745-.51301.29286-.69842.43622-.29058.69842-.29285c.26219-.00228.51479.09851.7034.28067l4.00001 4c.1875.18753.2928.44184.2928.70699 0 .2652-.1053.5195-.2928.707l-4.00001 4c-.18753.1875-.44184.2928-.707.2928-.26517 0-.51948-.1053-.707-.2928z" fill="rgb(0,0,0)" fill-rule="evenodd" style="fill: rgb(196, 196, 196);"></path></svg>